<?xml version="1.0" encoding="UTF-8"?>
<svg xmlns="http://www.w3.org/2000/svg" width="128" height="128" viewBox="0 0 128 128">
  <defs>
    <linearGradient id="g" x1="0" y1="0" x2="0" y2="1">
      <stop offset="0%" stop-color="#7fd34a"/>
      <stop offset="100%" stop-color="#5fb033"/>
    </linearGradient>
    <filter id="grain">
      <feTurbulence baseFrequency="0.8" numOctaves="1" stitchTiles="stitch" result="t"/>
      <feColorMatrix type="saturate" values="0"/>
      <feBlend in="SourceGraphic" in2="t" mode="overlay"/>
    </filter>
  </defs>
  <rect width="128" height="128" fill="url(#g)"/>
  <!-- blades -->
  <g fill="#397e1f" opacity="0.85">
    <path d="M10 128 C18 90, 14 60, 30 40 C24 56,22 78,10 128 Z"/>
    <path d="M40 128 C48 92, 44 62, 60 44 C54 60,52 82,40 128 Z"/>
    <path d="M70 128 C78 94, 74 66, 88 50 C82 64,80 86,70 128 Z"/>
    <path d="M98 128 C110 90, 108 64, 118 46 C114 62,112 88,98 128 Z"/>
  </g>
  <!-- highlights -->
  <g fill="#a7e67a" opacity="0.12">
    <path d="M20 128 C26 110,24 94,34 78 C28 96,26 112,20 128 Z"/>
    <path d="M56 128 C62 106,60 92,70 78 C64 96,62 112,56 128 Z"/>
    <path d="M92 128 C98 108,96 94,104 80 C100 96,98 112,92 128 Z"/>
  </g>
  <!-- tiny flecks for texture -->
  <g fill="#ffffff" opacity="0.06">
    <rect x="8" y="8" width="1" height="1"/>
    <rect x="24" y="20" width="1" height="1"/>
    <rect x="48" y="16" width="1" height="1"/>
    <rect x="80" y="28" width="1" height="1"/>
    <rect x="110" y="10" width="1" height="1"/>
    <rect x="96" y="44" width="1" height="1"/>
  </g>
</svg>

